<svg viewBox="0 0 800 600" height="600" width="800" xmlns="http://www.w3.org/2000/svg" version="1.1"><rect x="0" y="0" width="800" height="600" fill="#bc6d0bc7"></rect><g transform-origin="400 300" transform="scale(1, 1)"><linearGradient id="linear-gradient-r1"><stop offset="0%" stop-color="#f18602c7" stop-opacity="100%"></stop><stop offset="100%" stop-color="#de4705c4" stop-opacity="100%"></stop></linearGradient><filter id="shadow-r1" x="-20%" width="150%" y="-20%" height="150%"><feDropShadow dx="-1" dy="0" stdDeviation="7" flood-color="#0000002e"></feDropShadow></filter><path d="M0 0 0,703.6045255651698 C -1.8116224876915386,680.1343147540061 -28.59984441620918,550.3387439072628 -13.935557597627238,523.0644424023727 C 0.7287292209547083,495.7901408974826 83.8591399601226,505.02913996012256 112.80220629678418,493.80220629678416 C 141.74527263344575,482.57527263344576 176.5072766872682,444.15727668726817 208.70341422284645,436.70341422284645 C 240.8995517584247,429.24955175842473 330.56477276429223,446.08477276429227 360.46480272430927,436.46480272430927 C 390.3648326843263,426.8448326843263 426.0801579943951,389.6001579943951 438.7036446845159,362.7036446845159 C 451.3271313746367,335.80713137463664 437.9682332727655,249.61823327276545 457.56854649446905,229.56854649446905 C 477.1688597161726,209.51885971617264 567.7277988784326,226.89779887843258 589.4752848514667,208.47528485146663 C 611.2227708245007,190.05277082450067 615.2599986964029,114.95868716388321 624.8569001331925,87.85690013319254 C 634.4538015699821,60.75511310250188 658.3003121458366,11.42139701731503 663.2976035960019,0 L0 0Z" fill="none" stroke-linecap="round" filter="url(#shadow-r1)" stroke-width="1" style="transition: all 0.4s cubic-bezier(0.16, 1, 0.3, 1) 0s; fill: url(&quot;#linear-gradient-r1&quot;);"></path><path d="M0 0 0,551.5949852406978 C 12.315413328111172,549.4030504875183 75.49291341781617,546.6402614991068 94.73394867777824,534.7339486777782 C 113.97498393774032,522.8276358564497 137.09688982516528,482.1168898251653 148.00796353816986,460.00796353816986 C 158.91903725117444,437.89903725117443 156.27669581860303,374.77669581860306 178.6652849316597,364.6652849316597 C 201.05387404471637,354.55387404471634 292.6226954442263,386.8626954442263 320.22787979245186,382.22787979245186 C 347.83306414067744,377.5930641406774 381.2343579876423,351.4743579876423 391.01285684108734,329.01285684108734 C 400.7913556945324,306.5513556945324 396.197509419173,242.697509419173 395.4471017420292,209.4471017420292 C 394.6966940648854,176.19669406488538 362.4834511904418,83.50345119044185 385.24049009382725,73.24049009382725 C 407.99752899721267,62.977528997212644 546.7165175306201,140.02251086488366 570.5012471526861,130.50124715268612 C 594.2859767747522,120.97998344048858 568.49911752069,16.965162129849197 568.1999487251044,0 L0 0Z" fill="none" stroke-linecap="round" filter="url(#shadow-r1)" stroke-width="1" style="transition: all 0.4s cubic-bezier(0.16, 1, 0.3, 1) 0s; fill: url(&quot;#linear-gradient-r1&quot;);"></path><path d="M0 0 0,442.7938437368721 C -0.32664722584498496,430.01399682523373 -23.580471806044997,349.00272787974836 -2.5126709680383357,344.4873290319617 C 18.555129869968326,339.971930184175 139.65954849383485,411.65954849383485 162.06000644620508,408.0600064462051 C 184.4604643985753,404.4604643985753 158.3193504846065,330.9293504846065 169.79854405019432,316.7985440501943 C 181.27773761578214,302.66773761578213 243.8825115392885,318.36251153928845 250.36149541226527,299.36149541226524 C 256.84047928524205,280.36047928524204 212.96404113857696,189.44404113857695 219.63688153463104,170.63688153463104 C 226.30972193068513,151.82972193068514 280.2255627068753,158.83556270687532 301.6910369203736,154.69103692037365 C 323.15651113387196,150.54651113387197 370.3209209583762,150.32092095837618 384.7559139461567,138.7559139461567 C 399.1909069339372,127.19090693393723 405.1245266469767,83.76771333168571 412.72944451868534,65.72944451868534 C 420.334362390394,47.69117570568497 439.28692329278965,8.544827787429094 443.2552821900696,0 L0 0Z" fill="none" stroke-linecap="round" filter="url(#shadow-r1)" stroke-width="1" style="transition: all 0.4s cubic-bezier(0.16, 1, 0.3, 1) 0s; fill: url(&quot;#linear-gradient-r1&quot;);"></path></g><g transform-origin="400 300" transform="scale(-1, -1)"><linearGradient id="linear-gradient-r1"><stop offset="0%" stop-color="#f18602c7" stop-opacity="100%"></stop><stop offset="100%" stop-color="#de4705c4" stop-opacity="100%"></stop></linearGradient><filter id="shadow-r1" x="-20%" width="150%" y="-20%" height="150%"><feDropShadow dx="-1" dy="0" stdDeviation="7" flood-color="#0000002e"></feDropShadow></filter><path d="M0 0 0,657.8220485337079 C 13.060424354160205,655.175606578486 75.0233289153222,648.0101952247043 100.46480272430927,637.4648027243093 C 125.90627653329634,626.9194102239143 178.9201579943951,600.0901579943951 195.7036446845159,576.7036446845159 C 212.48713137463668,553.3171313746367 206.19823327276546,473.84823327276547 229.56854649446905,457.56854649446905 C 252.93885971617263,441.2888597161726 350.2177988784325,465.73779887843256 375.4752848514666,451.4752848514666 C 400.7327708245007,437.21277082450064 414.7108730514161,378.2308730514161 423.85690013319254,347.85690013319254 C 433.00292721496896,317.482927214969 422.32508172399673,233.97508172399677 445.82933932666975,217.82933932666978 C 469.3335969293428,201.6835969293428 574.4331368245805,233.60313682458053 604.6588816922158,223.6588816922158 C 634.8846265598511,213.71462655985107 667.7941755117351,170.41072369769836 678.3350690777103,141.3350690777103 C 688.8759626436854,112.25941445772224 684.7796891477021,18.373558980102338 685.742678353563,0 L0 0Z" fill="none" stroke-linecap="round" filter="url(#shadow-r1)" stroke-width="1" style="transition: all 0.4s cubic-bezier(0.16, 1, 0.3, 1) 0s; fill: url(&quot;#linear-gradient-r1&quot;);"></path><path d="M0 0 0,564.2682610452175 C -0.3587362878024593,547.7546508215368 -29.60467203602195,443.19020189985633 -2.7595099061727524,437.24049009382725 C 24.085652223676448,431.29077828779816 178.0625219744444,523.0825219744444 206.50124715268612,518.5012471526861 C 234.93997233092784,513.9199723309279 201.45324309542775,419.95324309542775 215.99991454184055,401.99991454184055 C 230.54658598825336,384.04658598825336 310.23435098811984,404.47435098811985 318.3987198174,380.3987198174 C 326.5630886466801,356.3230886466801 270.43736215889453,240.67736215889454 278.8027516901493,216.8027516901493 C 287.1681412214041,192.92814122140408 355.44770822823045,201.94770822823048 382.7478700578213,196.74787005782127 C 410.0480318874121,191.54803188741207 470.4147134336829,191.43471343368293 488.80399653315544,176.80399653315544 C 507.193279632628,162.17327963262795 514.3170959041119,107.18841344922781 524.2038938999176,84.2038938999176 C 534.0906918957234,61.219374350607396 559.5714774704575,10.946506206989287 564.8562888085842,0 L0 0Z" fill="none" stroke-linecap="round" filter="url(#shadow-r1)" stroke-width="1" style="transition: all 0.4s cubic-bezier(0.16, 1, 0.3, 1) 0s; fill: url(&quot;#linear-gradient-r1&quot;);"></path><path d="M0 0 0,443.2552821900696 C 6.919577260095006,437.66167276545553 42.77566319138122,415.41884987609023 53.2275173853462,400.2275173853462 C 63.67937157931117,385.0361848946021 56.83891800621525,328.83891800621524 80.39887841511518,326.3988784151152 C 103.9588388240151,323.9588388240151 211.37591313665735,383.9859131366573 234.45798206919184,381.4579820691918 C 257.54005100172634,378.9300510017263 254.10351513337653,328.5835151333765 257.95325481922674,306.95325481922674 C 261.802994505077,285.32299450507696 254.10089052659146,230.5808905265915 264.07136426803964,215.07136426803967 C 274.04183800948783,199.56183800948784 318.7857755794531,197.39577557945313 334.6492066765204,187.6492066765204 C 350.5126377735877,177.90263777358768 385.8194934913051,165.81949349130502 386.0977573224033,140.09775732240328 C 386.37602115350154,114.37602115350154 322.8616318150715,8.002406136880946 336.78969768496853,-10.210302315031484 C 350.71776355486554,-28.42301076694391 472.8986119296166,-1.3273393009540877 493.2367255523801,0 L0 0Z" fill="none" stroke-linecap="round" filter="url(#shadow-r1)" stroke-width="1" style="transition: all 0.4s cubic-bezier(0.16, 1, 0.3, 1) 0s; fill: url(&quot;#linear-gradient-r1&quot;);"></path></g></svg>