<svg viewBox="0 0 800 600" height="600" width="800" xmlns="http://www.w3.org/2000/svg" version="1.1"><rect x="0" y="0" width="800" height="600" fill="#982d07"></rect><g transform-origin="400 300" transform="scale(1, 1)"><linearGradient id="linear-gradient-r2"><stop offset="0%" stop-color="#de4705" stop-opacity="100%"></stop><stop offset="100%" stop-color="#f18602" stop-opacity="100%"></stop></linearGradient><filter id="shadow-r2" x="-20%" width="150%" y="-20%" height="150%"><feDropShadow dx="0" dy="0" stdDeviation="10" flood-color="#00000061"></feDropShadow></filter><path d="M0 0 0,377.6002204741491 C 14.65566468301695,373.33584106233627 49.065463698728315,367.38550779355813 73.27832341508474,356.27832341508474 C 97.49118313144118,345.17113903661135 98.78540857212462,332.3854085721246 121.06429858178211,322.0642985817821 C 143.3431885914396,311.7431885914396 167.39999688867792,319.59999688867794 184.67277346337215,304.67277346337215 C 201.9455500380664,289.74555003806637 197.71697648636842,269.7169764863684 207.4281814552533,247.4281814552533 C 217.1393864241382,225.1393864241382 229.56845297259125,221.56845297259125 233.22879830779664,193.22879830779664 C 236.88914364300203,164.88914364300203 217.72634408561822,129.92634408561824 225.7299081312803,105.7299081312803 C 233.73347217694237,81.53347217694235 256.4086068270278,88.00860682702779 273.24661853610695,72.24661853610694 C 290.0846302451861,56.48463024518608 290.3485973666112,41.36929038389742 309.91996667667604,26.919966676676026 C 329.4913359867409,12.470642969454637 358.8667654044802,5.383993335335208 371.10346508643124,0 L0 0Z" fill="none" stroke-linecap="round" filter="url(#shadow-r2)" stroke-width="1" style="transition: all 0.4s cubic-bezier(0.16, 1, 0.3, 1) 0s; fill: url(&quot;#linear-gradient-r2&quot;);"></path></g><g transform-origin="400 300" transform="scale(-1, -1)"><linearGradient id="linear-gradient-r2"><stop offset="0%" stop-color="#de4705" stop-opacity="100%"></stop><stop offset="100%" stop-color="#f18602" stop-opacity="100%"></stop></linearGradient><filter id="shadow-r2" x="-20%" width="150%" y="-20%" height="150%"><feDropShadow dx="0" dy="0" stdDeviation="10" flood-color="#00000061"></feDropShadow></filter><path d="M0 0 0,393.0036640780233 C 13.885636291050663,384.8885675534693 48.58242179369398,369.98315460929865 69.42818145525331,352.4281814552533 C 90.27394111681264,334.87320830120797 96.96845297259124,330.5684529725912 104.22879830779662,305.22879830779664 C 111.48914364300202,279.88914364300206 94.32634408561823,246.52634408561823 105.7299081312803,225.7299081312803 C 117.13347217694236,204.93347217694236 141.4086068270278,213.4086068270278 161.24661853610695,201.24661853610695 C 181.0846302451861,189.0846302451861 183.53480202175368,175.53480202175368 204.91996667667604,164.91996667667604 C 226.3051313315984,154.3051313315984 248.35582471046285,160.55582471046287 268.17244181071874,148.17244181071874 C 287.9890589109746,135.7890589109746 294.1053543902095,125.70535439020955 304.0030521779554,103.0030521779554 C 313.90074996570127,80.30074996570124 303.57258150345183,55.26154118503909 317.660930749448,34.66093074944801 C 331.7492799954442,14.060320313856934 363.08802487623876,6.932186149889607 374.44479840793645,0 L0 0Z" fill="none" stroke-linecap="round" filter="url(#shadow-r2)" stroke-width="1" style="transition: all 0.4s cubic-bezier(0.16, 1, 0.3, 1) 0s; fill: url(&quot;#linear-gradient-r2&quot;);"></path></g></svg>